# xmcd CD database file
#
# Track frame offsets:
#	150
#	13438
#	25845
#	39820
#	48265
#	59958
#	71413
#	82698
#	93235
#	106310
#	116953
#	130343
#	140745
#	151415
#	165493
#	176110
#	188233
#	203030
#	215310
#	227583
#	239565
#	251673
#	262625
#
# Disc length: 3700 seconds
#
# Revision: 0
# Processed by: cddbd v1.4PL0 Copyright (c) Steve Scherf et al.
# Submitted via: CDex 1.51
#
DISCID=3f0e7217
DTITLE=Nat King Cole - 1949 - 1960
DYEAR=1900
DGENRE=Jazz
TTITLE0=Beale Street Blues
TTITLE1=Careless Love
TTITLE2=Memphis Blues
TTITLE3=Almost Like Being In Love
TTITLE4=You Stepped Out Of A Dream
TTITLE5=Orange Colored Sky
TTITLE6=This Can't Be Love
TTITLE7=Get To Gettin'
TTITLE8=Jam-Bo
TTITLE9=It's Crazy
TTITLE10=Funny (Not Much)
TTITLE11=Where Were You
TTITLE12=That's My Girl
TTITLE13=Summer Is A Comin' In
TTITLE14=Paint Yourself A Rainbow
TTITLE15=Destination Moon
TTITLE16=Lush Life
TTITLE17=Lilian
TTITLE18=Wish I Were Somebody Else
TTITLE19=Who Do You Know In Heaven (That Made You The Angel You Are)
TTITLE20=Joe Turner's Blues
TTITLE21=St. Louis Blues
TTITLE22=Where Or When
EXTD=
EXTT0=
EXTT1=
EXTT2=
EXTT3=
EXTT4=
EXTT5=
EXTT6=
EXTT7=
EXTT8=
EXTT9=
EXTT10=
EXTT11=
EXTT12=
EXTT13=
EXTT14=
EXTT15=
EXTT16=
EXTT17=
EXTT18=
EXTT19=
EXTT20=
EXTT21=
EXTT22=
PLAYORDER=
